<svg viewBox="0 0 24 24" class="r-4qtqp9 r-yyyyoo r-1xvli5t r-dnmrzs r-bnwqim r-1plcrui r-lrvibr r-1hdv0qix"><path d="M22.132 7.653c0-.6-.234-1.166-.66-1.59l-3.535-3.536c-.85-.85-2.333-.85-3.182 0L3.417 13.865c-.323.323-.538.732-.63 1.25l-.534 5.816a.755.755 0 00.747.82c.023 0 .046 0 .068-.003l5.884-.544a2.24 2.24 0 001.184-.62l11.337-11.34c.425-.424.66-.99.66-1.59zm-17.954 8.69l3.476 3.476-3.825.35.348-3.826zm5.628 2.447a.767.767 0 01-1.06 0L5.21 15.255a.75.75 0 010-1.06l8.398-8.398 4.596 4.596-8.398 8.397zM20.413 8.184l-1.15 1.15-4.595-4.597 1.15-1.15a.75.75 0 011.06 0l3.535 3.536a.744.744 0 010 1.06z"/></svg>