<svg width="10" height="10" viewBox="0 0 10 10" fill="none" xmlns="http://www.w3.org/2000/svg">
<path d="M8.08849 0.993642L4.99886 4.08327L1.90099 0.985402C1.6472 0.731606 1.23744 0.731061 0.984324 0.984182C0.731203 1.2373 0.731749 1.64705 0.985545 1.90085L4.08341 4.99872L0.993784 8.08835C0.740664 8.34147 0.741209 8.75122 0.995005 9.00501C1.2488 9.25881 1.65855 9.25936 1.91167 9.00624L5.0013 5.91661L8.09917 9.01447C8.35297 9.26827 8.76272 9.26882 9.01584 9.0157C9.26896 8.76257 9.26841 8.35282 9.01462 8.09903L5.91675 5.00116L9.00638 1.91153C9.2595 1.65841 9.25895 1.24866 9.00516 0.994862C8.75136 0.741067 8.34161 0.740521 8.08849 0.993642Z" fill="#FF0000" fill-opacity="0.59"/>
</svg>
