<?xml version="1.0" standalone="no"?>
<!DOCTYPE svg PUBLIC "-//W3C//DTD SVG 20010904//EN"
 "http://www.w3.org/TR/2001/REC-SVG-20010904/DTD/svg10.dtd">
<svg version="1.0" xmlns="http://www.w3.org/2000/svg"
 width="1264.000000pt" height="1280.000000pt" viewBox="0 0 1264.000000 1280.000000"
 preserveAspectRatio="xMidYMid meet">
<metadata>
Created by potrace 1.15, written by Peter Selinger 2001-2017
</metadata>
<g transform="translate(0.000000,1280.000000) scale(0.100000,-0.100000)"
fill="#000000" stroke="none">
<path d="M10035 12794 c-352 -41 -591 -181 -705 -412 -66 -133 -85 -241 -77
-432 9 -205 61 -384 182 -627 118 -239 355 -572 432 -608 92 -44 203 27 203
128 0 48 -8 62 -95 172 -189 238 -323 476 -388 695 -36 120 -49 200 -48 310 1
255 125 405 386 466 109 26 384 26 540 0 284 -46 622 -144 865 -251 645 -285
1021 -856 1020 -1550 -1 -560 -267 -1054 -628 -1165 -77 -24 -191 -26 -280 -5
-91 22 -314 118 -751 325 -898 424 -1205 528 -1649 560 -379 27 -742 -52
-1113 -241 -224 -114 -376 -228 -486 -364 -278 -344 -350 -804 -222 -1420 116
-557 451 -1322 932 -2125 61 -102 116 -194 124 -206 12 -19 7 -25 -89 -95
-297 -215 -653 -522 -888 -766 -110 -114 -158 -155 -260 -223 -163 -109 -1071
-723 -1410 -953 -2775 -1889 -4611 -3187 -5443 -3850 -103 -82 -186 -151 -184
-153 8 -9 593 315 972 539 844 497 2125 1285 3270 2012 193 122 413 262 490
310 216 136 1168 745 1575 1007 201 129 545 351 765 493 356 229 411 261 505
295 322 115 761 327 1104 533 l108 65 85 -116 c433 -594 818 -946 1395 -1275
130 -74 547 -284 620 -312 66 -25 112 -14 160 36 34 36 38 45 38 94 0 85 -18
99 -275 224 -818 398 -1220 726 -1690 1379 -51 71 -84 126 -79 130 358 240
685 503 924 742 251 250 369 425 377 558 4 55 1 73 -17 100 -80 127 -384 94
-811 -89 -243 -104 -581 -285 -862 -461 -70 -44 -130 -79 -132 -77 -2 2 -50
83 -108 180 -545 912 -836 1603 -949 2249 -20 119 -17 485 5 587 61 279 184
452 432 608 198 125 449 228 675 276 90 20 135 23 315 23 231 0 301 -9 530
-69 262 -68 474 -154 1040 -420 555 -260 764 -351 870 -379 99 -25 215 -34
314 -25 494 50 867 506 973 1189 16 109 17 430 0 540 -113 744 -566 1310
-1269 1589 -237 93 -568 187 -798 226 -182 30 -400 42 -520 29z m-21 -6164
c15 -15 -14 -76 -68 -141 -100 -121 -323 -314 -609 -527 -180 -134 -456 -327
-461 -321 -1 2 -35 56 -75 119 -41 63 -89 138 -107 167 l-34 51 148 94 c276
177 507 309 732 417 286 138 431 181 474 141z m-1486 -978 c56 -87 102 -163
102 -168 0 -5 -38 -31 -83 -58 -559 -332 -938 -506 -1043 -480 -98 25 118 266
520 580 144 111 380 283 391 284 6 0 56 -71 113 -158z"/>
</g>
</svg>
