<?xml version="1.0" encoding="UTF-8" standalone="no"?>
<!DOCTYPE svg PUBLIC "-//W3C//DTD SVG 20010904//EN"
              "http://www.w3.org/TR/2001/REC-SVG-20010904/DTD/svg10.dtd">

<svg xmlns="http://www.w3.org/2000/svg"
     width="141.236mm" height="141.236mm"
     viewBox="0 0 834 834">
  <path id="Selection"
        fill="none" stroke="black" stroke-width="1"
        d="M 149.00,335.00
           C 156.03,338.40 160.96,347.69 165.42,354.00
             165.42,354.00 195.65,395.00 195.65,395.00
             210.95,414.78 226.62,435.04 238.69,457.00
             260.99,497.60 276.68,542.07 283.13,588.00
             283.13,588.00 287.00,616.00 287.00,616.00
             287.00,616.00 289.00,645.00 289.00,645.00
             289.00,645.00 289.73,686.00 289.73,686.00
             291.02,694.97 293.75,701.19 304.00,701.90
             314.90,702.67 320.58,696.27 324.57,687.00
             333.18,667.03 328.09,660.48 328.00,641.00
             328.00,641.00 326.71,612.00 326.71,612.00
             326.71,612.00 323.27,592.00 323.27,592.00
             323.27,592.00 317.34,551.00 317.34,551.00
             317.34,551.00 303.98,505.00 303.98,505.00
             303.98,505.00 292.87,477.00 292.87,477.00
             292.87,477.00 286.51,461.00 286.51,461.00
             286.51,461.00 256.48,409.00 256.48,409.00
             256.48,409.00 220.13,361.00 220.13,361.00
             220.13,361.00 185.22,312.00 185.22,312.00
             183.13,308.76 173.95,295.63 173.54,293.00
             172.52,286.60 182.64,285.55 187.00,285.05
             187.00,285.05 237.00,278.00 237.00,278.00
             230.50,283.28 221.96,287.10 214.00,289.66
             208.19,291.52 200.62,292.79 196.21,297.21
             188.52,304.92 192.58,316.24 201.01,321.39
             206.82,324.93 213.44,325.07 220.00,325.00
             237.00,324.80 253.26,314.57 268.00,307.25
             268.00,307.25 283.00,300.69 283.00,300.69
             283.00,300.69 297.00,293.87 297.00,293.87
             297.00,293.87 323.00,283.42 323.00,283.42
             323.00,283.42 346.00,274.83 346.00,274.83
             348.91,274.13 352.98,272.58 355.70,274.83
             359.20,277.29 358.99,284.04 359.00,288.00
             359.00,288.00 359.00,348.00 359.00,348.00
             359.00,348.00 360.00,365.00 360.00,365.00
             360.00,365.00 360.00,414.00 360.00,414.00
             360.00,414.00 361.00,433.00 361.00,433.00
             361.00,433.00 362.00,448.00 362.00,448.00
             362.00,448.00 362.00,483.00 362.00,483.00
             362.00,483.00 363.00,500.00 363.00,500.00
             363.00,500.00 363.00,537.00 363.00,537.00
             363.00,537.00 365.00,563.00 365.00,563.00
             365.00,563.00 365.00,607.00 365.00,607.00
             365.00,607.00 366.00,622.00 366.00,622.00
             366.00,622.00 366.00,669.00 366.00,669.00
             366.00,669.00 367.00,686.00 367.00,686.00
             367.00,686.00 367.00,733.00 367.00,733.00
             367.00,733.00 368.00,748.00 368.00,748.00
             368.00,748.00 368.00,783.00 368.00,783.00
             368.02,794.28 371.31,807.35 381.00,814.20
             385.70,817.52 389.41,818.10 395.00,817.98
             411.96,817.65 419.98,803.43 420.00,788.00
             420.00,788.00 420.00,688.00 420.00,688.00
             420.00,688.00 419.00,671.00 419.00,671.00
             419.00,671.00 419.00,615.00 419.00,615.00
             419.00,615.00 417.00,587.00 417.00,587.00
             417.00,587.00 417.00,553.00 417.00,553.00
             417.00,553.00 416.00,536.00 416.00,536.00
             416.00,536.00 416.00,480.00 416.00,480.00
             416.00,480.00 413.00,441.00 413.00,441.00
             413.00,441.00 413.00,409.00 413.00,409.00
             413.00,409.00 412.00,392.00 412.00,392.00
             412.00,392.00 412.00,349.00 412.00,349.00
             412.00,349.00 411.00,332.00 411.00,332.00
             411.00,332.00 411.00,269.00 411.00,269.00
             411.02,258.99 413.51,254.06 423.00,249.49
             423.00,249.49 463.00,236.28 463.00,236.28
             463.00,236.28 494.00,225.34 494.00,225.34
             494.00,225.34 544.00,210.97 544.00,210.97
             544.00,210.97 557.00,206.00 557.00,206.00
             557.00,206.00 581.00,198.67 581.00,198.67
             581.00,198.67 612.00,187.74 612.00,187.74
             612.00,187.74 634.00,181.26 634.00,181.26
             634.00,181.26 646.00,176.69 646.00,176.69
             646.00,176.69 664.00,171.00 664.00,171.00
             664.00,171.00 686.00,163.00 686.00,163.00
             686.00,163.00 725.00,149.94 725.00,149.94
             725.00,149.94 779.00,128.42 779.00,128.42
             779.00,128.42 794.00,122.68 794.00,122.68
             797.85,120.87 808.70,114.37 806.75,109.14
             805.07,104.61 795.92,104.96 792.00,105.00
             782.09,105.12 749.67,114.21 738.00,117.13
             738.00,117.13 699.00,125.88 699.00,125.88
             699.00,125.88 642.00,140.85 642.00,140.85
             642.00,140.85 626.00,144.37 626.00,144.37
             626.00,144.37 607.00,150.12 607.00,150.12
             607.00,150.12 578.00,156.88 578.00,156.88
             578.00,156.88 552.00,164.58 552.00,164.58
             552.00,164.58 515.00,173.88 515.00,173.88
             515.00,173.88 495.00,179.85 495.00,179.85
             495.00,179.85 468.00,186.43 468.00,186.43
             468.00,186.43 445.00,193.57 445.00,193.57
             445.00,193.57 402.00,205.42 402.00,205.42
             402.00,205.42 386.00,210.57 386.00,210.57
             386.00,210.57 363.00,215.88 363.00,215.88
             363.00,215.88 335.00,223.11 335.00,223.11
             335.00,223.11 302.00,229.08 302.00,229.08
             302.00,229.08 258.00,234.28 258.00,234.28
             258.00,234.28 230.00,238.73 230.00,238.73
             230.00,238.73 192.00,243.58 192.00,243.58
             192.00,243.58 165.00,248.36 165.00,248.36
             161.28,249.25 156.55,250.48 153.22,248.36
             149.55,245.56 148.27,238.18 146.98,234.00
             142.62,219.99 139.18,206.83 139.00,192.00
             138.88,181.74 140.29,162.35 134.20,154.04
             126.81,143.96 107.37,143.62 102.94,159.00
             101.93,162.51 102.17,164.60 101.83,168.00
             101.83,168.00 101.00,188.00 101.00,188.00
             101.00,188.00 102.00,203.00 102.00,203.00
             102.01,211.16 102.66,219.01 104.42,227.00
             104.42,227.00 109.21,249.00 109.21,249.00
             109.95,252.02 110.89,256.16 109.21,258.88
             106.55,262.54 99.13,264.62 95.00,266.00
             95.00,266.00 63.00,277.01 63.00,277.01
             50.11,282.36 36.88,290.91 26.00,299.60
             19.46,304.82 14.40,308.40 10.32,316.00
             3.27,329.13 4.59,340.50 13.81,352.00
             16.64,355.54 19.13,358.40 23.00,360.87
             31.84,366.52 48.53,369.98 59.00,370.00
             59.00,370.00 77.00,370.00 77.00,370.00
             87.99,369.87 116.19,362.47 127.00,358.42
             132.68,356.30 140.45,354.16 144.79,349.79
             149.36,345.19 149.00,340.94 149.00,335.00 Z
           M 144.00,326.00
           C 133.58,324.05 134.43,319.70 121.00,320.01
             121.00,320.01 80.00,329.56 80.00,329.56
             76.92,330.05 66.81,331.14 64.00,330.91
             62.20,330.76 59.09,330.33 58.17,328.49
             56.85,325.88 60.13,323.51 62.02,322.41
             62.02,322.41 83.00,313.15 83.00,313.15
             92.90,308.90 101.58,305.90 112.00,303.15
             116.02,302.09 121.97,300.52 126.00,301.64
             134.70,304.06 141.68,317.85 144.00,326.00 Z" />
</svg>
